<svg width="402" height="402" viewBox="0 0 402 402" fill="none" xmlns="http://www.w3.org/2000/svg">
<path d="M279.002 385.195C274.714 386.868 270.427 388.542 265.388 390.183C262.093 391.147 259.549 392.144 257.006 393.141C256.541 393.331 256.075 393.522 255.094 393.532C254.051 393.656 253.525 393.962 252.999 394.267C252.538 394.446 252.077 394.624 251.109 394.599C250.068 394.706 249.535 395.017 249.001 395.329C248.539 395.49 248.076 395.651 247.108 395.605C246.068 395.713 245.532 396.027 244.997 396.341C244.53 396.485 244.063 396.628 243.086 396.567C242.048 396.691 241.521 397.02 240.993 397.348C238.239 397.876 235.484 398.404 232.19 398.7C231.099 398.709 230.548 398.948 229.997 399.188C228.583 399.434 227.169 399.68 225.16 399.664C223.71 399.643 222.853 399.883 221.997 400.123C218.934 400.412 215.871 400.701 212.088 400.669C209.245 400.7 207.123 401.051 205.001 401.401C202.614 401.483 200.227 401.565 197.266 401.185C194.166 400.761 191.64 400.799 189.114 400.838C186.353 400.743 183.591 400.648 180.303 400.12C178.887 399.735 177.996 399.783 177.105 399.831C173.339 399.436 169.572 399.041 165.343 398.227C164.293 397.789 163.704 397.769 163.115 397.75C162.638 397.744 162.161 397.738 161.302 397.369C160.313 396.942 159.707 396.877 159.101 396.812C158.311 396.757 157.522 396.701 156.245 396.183C152.506 394.763 149.257 393.805 146.163 392.549C147.418 391.07 148.304 389.476 149.653 388.776C158.347 384.264 167.143 379.948 175.906 375.567C186.12 370.46 196.333 365.351 206.549 360.248C219.915 353.573 233.263 346.863 246.657 340.246C257.172 335.052 267.824 330.132 278.274 324.812C294.017 316.796 309.587 308.439 325.324 300.41C338.392 293.744 351.665 287.48 364.709 280.769C371.786 277.128 378.632 273.153 387.062 275.017C380.937 286.975 375.706 299.504 368.512 310.78C350.064 339.696 325.266 362.029 294.13 378.063C288.606 380.466 283.804 382.83 279.002 385.195Z" fill="#2DB44B"/>
<path d="M387.336 274.795C378.632 273.153 371.786 277.128 364.709 280.769C351.665 287.48 338.392 293.744 325.324 300.41C309.587 308.439 294.017 316.796 278.274 324.812C267.824 330.132 257.172 335.052 246.657 340.246C233.263 346.863 219.915 353.573 206.549 360.248C196.333 365.351 186.12 370.46 175.906 375.567C167.143 379.948 158.347 384.264 149.653 388.776C148.304 389.476 147.418 391.07 145.813 392.453C139.397 390.846 133.485 389.035 127.574 387.225C126.904 387.088 126.234 386.951 125.186 386.314C118.424 382.938 112.039 380.061 105.655 377.184C105.655 377.184 105.258 377.159 105.067 376.683C103.905 375.821 102.935 375.434 101.965 375.048C101.965 375.048 101.966 375.021 101.983 374.612C101.395 370.758 103.353 369.245 106.188 367.851C122.403 359.879 138.544 351.756 154.693 343.652C160.928 340.523 167.317 337.634 173.264 334.024C177.433 331.493 180.993 329.767 184.976 334.435C185.126 341.983 185.126 341.98 192.037 341.971C198.823 341.962 205.612 341.836 212.394 342.007C215.844 342.093 217.135 340.827 217.003 337.365C216.808 332.252 216.983 327.124 217.375 321.997C221.659 320.253 225.648 318.674 229.462 316.748C248.431 307.172 267.339 297.476 286.298 287.88C298.866 281.519 311.529 275.347 324.069 268.931C344.57 258.441 364.955 247.722 385.512 237.343C389.54 235.309 394.126 234.381 398.455 232.943C397.21 247.437 392.78 261.101 387.336 274.795Z" fill="#34B648"/>
<path d="M400.354 186.004C400.601 188.374 400.848 190.743 400.745 193.853C400.257 200.73 400.12 206.867 399.564 213.003C397.2 213.288 395.05 213.135 393.343 213.932C383.011 218.754 372.671 223.579 362.542 228.808C346.546 237.066 330.786 245.783 314.792 254.044C299.965 261.701 284.883 268.864 270.057 276.523C253.906 284.866 237.938 293.56 221.836 301.998C220.447 302.726 218.656 302.685 216.958 302.54C216.899 289.72 216.933 277.361 217.342 264.997C221.761 263.33 225.804 261.667 229.928 260.448C229.841 264.443 229.673 267.996 229.456 272.566C231.315 271.429 232.844 270.75 234.055 269.703C236.941 267.206 239.516 264.333 242.499 261.969C258.899 248.967 277.894 243.439 298.548 242.865C304.952 242.686 305.324 242.336 305.307 235.953C305.294 230.971 305.305 225.988 305.672 221.005C307.211 220.297 308.455 219.684 309.54 218.861C311.068 217.702 312.301 216.031 313.968 215.196C325.057 209.639 336.304 204.396 347.353 198.763C362.544 191.017 377.634 183.07 392.697 175.075C395.356 173.664 397.337 174.07 399.313 176.008C399.547 176.758 399.78 177.508 399.694 178.909C399.7 181.708 400.027 183.856 400.354 186.004Z" fill="#3EB946"/>
<path d="M390.226 135.982C391.471 139.735 392.717 143.489 393.55 147.614C390.298 148.208 387.274 147.885 384.663 148.776C380.464 150.209 376.491 152.349 372.506 154.356C346.299 167.557 320.022 180.626 293.965 194.119C283.115 199.737 272.753 206.296 262.161 212.413C260.274 213.502 258.959 214.614 261.295 216.579C252.168 220.576 243.27 224.181 234.556 228.186C232.668 229.054 231.44 231.358 229.521 232.948C225.09 233.265 221.047 233.633 216.899 233.542C216.842 219.389 216.888 205.695 217.338 192.001C221.769 190.988 225.794 189.975 229.875 189.381C229.931 194.868 229.931 199.937 229.931 205.818C231.947 204.934 233.076 204.688 233.892 204.045C245.676 194.746 258.857 188.957 273.974 188.141C277.555 187.947 278.325 186.15 278.249 182.948C278.091 176.304 278.244 169.653 278.62 162.998C279.733 162.719 280.551 162.546 281.25 162.158C292.2 156.073 302.996 149.696 314.109 143.927C325.842 137.836 337.867 132.309 349.774 126.555C359.844 121.689 369.928 116.85 380.005 111.999C381.065 114.016 382.126 116.033 383.133 118.785C385.462 125.007 387.844 130.495 390.226 135.982Z" fill="#4DBE44"/>
<path d="M229.82 188.963C225.794 189.975 221.768 190.988 217.235 191.542C216.809 177.389 216.89 163.695 217.355 149.996C222.808 148.289 227.952 146.772 232.897 144.765C234.224 144.227 234.946 142.195 236.117 140.608C236.847 140.217 237.407 140.068 238.207 140.21C242.133 141.249 245.472 141.403 245.947 136.043C247.113 135.554 248.069 135.287 249.242 135.271C251.64 134.835 253.821 134.148 256.352 133.284C257.479 133.079 258.254 133.051 259.276 133.297C261.354 133.082 263.185 132.592 265.168 131.724C265.611 128.899 265.903 126.451 266.559 123.997C270.462 122.241 273.993 120.475 277.542 118.746C288.522 113.397 299.628 108.292 310.465 102.667C326.536 94.3248 341.916 84.5911 359.265 78.8756C360.478 80.3394 361.692 81.8031 362.989 83.8762C363.589 84.9868 364.105 85.4881 364.621 85.9894C364.621 85.9894 365.006 86.2825 365.054 86.8304C365.631 87.9125 366.159 88.4466 366.688 88.9808C366.688 88.9808 367.038 89.2892 367.072 89.8345C367.642 90.9123 368.178 91.4448 368.714 91.9772C370.468 94.7379 372.222 97.4986 374.026 100.953C375.228 103.425 376.381 105.202 377.533 106.979C378.338 108.416 379.144 109.853 379.977 111.645C369.928 116.85 359.844 121.689 349.774 126.555C337.867 132.309 325.842 137.836 314.109 143.927C302.996 149.696 292.2 156.073 281.25 162.158C280.551 162.546 279.733 162.719 278.526 162.557C277.608 159.607 279.901 155.693 274.454 155.814C260.262 156.129 246.929 159.898 233.975 165.388C231.199 166.565 229.906 168.362 229.976 171.508C230.105 177.322 229.891 183.144 229.82 188.963Z" fill="#56C041"/>
<path d="M49.3891 331.99C48.3139 330.902 47.2386 329.813 46.0449 328.094C45.3359 326.961 44.7452 326.459 44.1546 325.957C43.7739 325.543 43.3931 325.129 42.9726 324.111C42.3752 323.005 41.8177 322.501 41.2601 321.997C39.1816 319.26 37.1031 316.523 35.3088 313.385C38.6537 310.632 41.4812 307.854 44.824 306.012C51.7774 302.181 59.0225 298.881 66.1135 295.295C75.9977 290.297 85.8273 285.19 95.7245 280.217C103.24 276.442 110.734 272.604 118.402 269.16C125.887 265.799 133.619 262.993 141.164 259.758C143.968 258.556 146.546 256.828 149.582 255.431C162.964 262.955 173.334 272.881 178.894 286.921C174.308 287.961 169.849 288.286 166.103 290.092C148.2 298.725 130.466 307.71 112.721 316.667C98.8159 323.686 84.8776 330.654 71.1951 338.088C67.9512 339.85 65.6728 343.39 62.9503 346.112C59.6939 342.973 56.4375 339.833 53.0602 336.042C51.7559 334.257 50.5725 333.124 49.3891 331.99Z" fill="#48BC44"/>
<path d="M25.183 105.004C31.7967 94.8705 37.5444 84.0271 45.174 74.7276C77.9069 34.8308 120.197 10.948 171.064 2.79742C187.986 0.0860174 205.21 -0.34235 222.35 1.9902C224.982 2.34831 227.656 2.39875 230.414 3.07723C226.2 4.62359 221.553 4.99076 217.622 6.86314C199.2 15.6375 180.946 24.7649 162.691 33.8841C144.559 42.9414 126.506 52.1549 108.404 61.27C96.2922 67.3685 84.0457 73.2085 72.0555 79.5356C56.3304 87.8336 40.7982 96.4972 25.183 105.004Z" fill="#7ACB3A"/>
<path d="M63.0621 346.424C65.6729 343.39 67.9513 339.85 71.1952 338.088C84.8776 330.654 98.816 323.686 112.721 316.667C130.466 307.71 148.2 298.725 166.103 290.092C169.849 288.286 174.309 287.961 179.133 287.18C181.552 293.302 184.266 299.112 184.775 305.11C185.587 314.676 184.932 324.365 184.897 334.003C180.993 329.767 177.433 331.493 173.264 334.024C167.317 337.634 160.928 340.523 154.694 343.652C138.544 351.756 122.403 359.879 106.188 367.851C103.353 369.245 101.395 370.758 101.997 374.609C100.809 374.409 99.6245 373.804 98.149 372.628C95.4798 370.754 93.1021 369.449 90.7244 368.144C87.2913 365.857 83.8582 363.569 80.1804 360.665C78.9013 359.396 77.8668 358.743 76.8323 358.091C76.3279 357.773 75.8235 357.455 75.1105 356.56C73.8759 355.351 72.85 354.72 71.824 354.09C68.9406 351.639 66.0572 349.188 63.0621 346.424Z" fill="#3EB946"/>
<path d="M24.9947 105.175C40.7982 96.4972 56.3304 87.8335 72.0555 79.5356C84.0457 73.2085 96.2923 67.3685 108.404 61.27C126.506 52.1549 144.559 42.9414 162.691 33.8841C180.946 24.7649 199.2 15.6375 217.622 6.86313C221.553 4.99075 226.2 4.62358 230.761 3.27785C231.465 2.98732 231.925 2.98192 232.796 3.48863C237.476 4.6564 241.745 5.31205 246.013 5.9677C246.474 6.01619 246.935 6.06469 247.81 6.61196C250.483 7.76312 252.742 8.41549 254.95 9.43626C252.045 11.1517 249.156 12.4308 246.342 13.8568C225.343 24.4987 204.428 35.3096 183.348 45.789C165.132 54.8444 146.673 63.4083 128.436 72.4222C112.555 80.2716 96.8127 88.4031 81.0504 96.4904C67.8195 103.279 54.6557 110.198 41.4471 117.031C34.698 120.522 27.9803 124.085 21.1112 127.325C18.9328 128.353 16.311 128.44 13.8922 128.958C15.1447 125.829 16.3973 122.7 18.1529 119.252C18.7737 118.291 18.8914 117.647 19.0092 117.004C20.149 114.466 21.2888 111.929 23.076 109.126C24.0693 108.013 24.4152 107.167 24.7611 106.32C24.7761 105.996 24.7912 105.672 24.9947 105.175Z" fill="#74CA39"/>
<path d="M18.8032 284.423C14.8903 273.992 10.9461 263.573 7.09598 253.12C6.47634 251.437 6.2758 249.601 6.19415 247.243C8.46884 244.883 10.1671 242.608 12.4352 241.427C28.8584 232.877 45.3681 224.491 61.9088 216.17C72.5379 210.822 83.25 205.638 93.955 200.443C103.281 195.917 112.65 191.477 122.275 187.001C122.916 187.006 123.283 187.01 123.992 187.273C126.13 187.749 127.927 187.964 129.723 188.182C141.205 189.578 152.184 192.362 161.144 199.879C156.308 202.149 151.634 203.92 147.419 206.453C143.366 208.888 139.787 212.113 135.591 215.035C124.182 213.68 113.175 212.339 102.187 210.854C97.9386 210.279 96.6541 212.11 96.7027 216.126C96.8031 224.419 96.5787 232.716 96.1257 240.926C93.1865 240.734 90.2216 239.743 88.0997 240.673C78.8842 244.716 69.8706 249.231 60.8669 253.741C50.7128 258.827 40.8073 264.437 30.4998 269.181C19.9502 274.036 17.5613 276.578 18.8032 284.423Z" fill="#5AC241"/>
<path d="M4.81553 160.413C5.14433 158.184 5.47312 155.955 6.26881 153.326C12.9761 149.213 19.0904 145.263 25.4878 141.843C34.0941 137.242 42.9398 133.092 51.6453 128.674C69.4512 119.638 87.2262 110.541 105.025 101.491C126.724 90.4575 148.483 79.5397 170.103 68.3537C174.843 65.9009 179.544 64.4029 184.934 65.4639C185.014 81.639 185.014 97.3513 185.014 113.859C182.919 112.931 181.576 112.448 180.339 111.772C170.189 106.224 159.538 102.408 147.945 101.003C136.804 99.6514 136.842 99.3378 135.508 110.001C129.029 109.213 124.979 113.401 120.167 115.859C104.061 124.084 87.8326 132.069 71.6566 140.156C60.5069 145.731 49.3418 151.275 38.2279 156.92C26.4669 162.894 14.7585 168.971 3.01867 174.699C2.80372 173.645 2.59717 172.896 2.39062 172.147C2.41686 171.647 2.44309 171.147 2.93892 170.138C3.87752 166.556 4.34652 163.485 4.81553 160.413Z" fill="#6DC73B"/>
<path d="M18.8264 284.77C17.5613 276.578 19.9502 274.036 30.4998 269.181C40.8073 264.437 50.7128 258.827 60.867 253.741C69.8706 249.231 78.8842 244.716 88.0998 240.673C90.2216 239.743 93.1865 240.734 96.3991 241.239C100.08 242.045 103.116 242.562 106.173 242.843C121.336 244.234 136.081 247.022 149.228 255.34C146.546 256.828 143.968 258.556 141.164 259.758C133.619 262.993 125.887 265.799 118.402 269.16C110.734 272.604 103.24 276.442 95.7246 280.217C85.8274 285.19 75.9978 290.297 66.1135 295.295C59.0225 298.881 51.7775 302.181 44.824 306.012C41.4813 307.854 38.6538 310.632 35.2388 313.05C34.8845 313.114 34.9429 313.105 34.9325 312.819C34.4096 312.02 33.8971 311.508 33.3845 310.997C31.2624 307.615 29.1404 304.233 26.9853 300.221C26.5278 299.059 26.1033 298.527 25.6789 297.995C23.4024 293.702 21.126 289.41 18.8264 284.77Z" fill="#50BF42"/>
<path d="M184.854 65.0013C179.544 64.4029 174.843 65.9009 170.103 68.3537C148.483 79.5397 126.724 90.4575 105.025 101.491C87.2261 110.541 69.4512 119.638 51.6452 128.674C42.9397 133.092 34.094 137.242 25.4877 141.843C19.0904 145.263 12.9761 149.213 6.39117 152.963C8.48133 145.136 10.916 137.273 13.6214 129.183C16.311 128.44 18.9328 128.353 21.1111 127.326C27.9803 124.085 34.698 120.522 41.4471 117.031C54.6556 110.198 67.8194 103.279 81.0504 96.4904C96.8127 88.4031 112.555 80.2716 128.436 72.4222C146.673 63.4083 165.132 54.8444 183.348 45.789C204.428 35.3096 225.343 24.4987 246.342 13.8568C249.156 12.4308 252.045 11.1518 255.287 9.38895C255.899 8.93877 256.123 8.90431 256.347 8.86986C263.052 11.085 269.758 13.3001 276.433 16.0667C273.471 16.988 270.203 16.6481 267.668 17.8519C257.36 22.747 247.284 28.1297 237.108 33.3052C227.828 38.0254 218.528 42.7067 209.24 47.4117C204.138 49.9961 199.043 52.5942 193.729 55.2957C195.16 57.2852 196.081 58.565 196.556 59.9562C194.134 60.075 192.128 60.3021 190.188 60.0433C186.255 59.5187 184.724 61.2968 184.854 65.0013Z" fill="#71C93A"/>
<path d="M0.707921 210.003C0.577985 207.3 0.448049 204.597 0.800146 201.45C6.37534 198.74 11.569 196.673 16.5435 194.171C34.251 185.263 51.9108 176.259 69.5358 167.19C81.684 160.938 93.6885 154.406 105.862 148.205C116.444 142.815 127.173 137.714 138.23 132.49C155.433 132.851 169.26 139.289 179.496 152.8C184.406 159.282 186.095 166.603 184.589 175.192C183.035 174.326 181.893 173.77 180.832 173.087C167.213 164.304 152.322 158.903 136.353 156.424C125.016 154.664 124.559 155.06 123.337 165.939C120.196 165.488 117.161 164.214 114.68 164.912C110.262 166.154 106.111 168.456 101.966 170.549C83.1881 180.032 64.3383 189.384 45.736 199.203C31.3165 206.815 17.2249 215.047 2.69758 222.711C2.27141 220.671 2.22516 218.91 1.97731 217.177C1.63352 214.774 1.1383 212.393 0.707921 210.003Z" fill="#63C53E"/>
<path d="M217.051 303.001C218.656 302.685 220.447 302.726 221.836 301.998C237.938 293.56 253.906 284.866 270.057 276.523C284.883 268.864 299.965 261.701 314.792 254.044C330.786 245.783 346.546 237.066 362.542 228.808C372.671 223.579 383.011 218.754 393.343 213.932C395.05 213.135 397.2 213.288 399.674 213.221C400.399 213.717 400.661 213.902 400.987 213.994C400.875 215.721 400.762 217.448 400.216 219.71C399.849 221.827 399.915 223.408 399.981 224.989C399.913 226.085 399.846 227.182 399.246 228.794C398.621 230.463 398.53 231.617 398.438 232.771C398.438 232.771 398.395 232.861 398.425 232.902C394.126 234.381 389.54 235.309 385.512 237.343C364.955 247.722 344.57 258.441 324.069 268.931C311.529 275.347 298.866 281.519 286.298 287.88C267.339 297.476 248.431 307.172 229.462 316.748C225.648 318.674 221.659 320.253 217.265 321.539C216.87 315.058 216.961 309.03 217.051 303.001Z" fill="#3AB846"/>
<path d="M137.838 132.486C127.173 137.714 116.444 142.815 105.862 148.205C93.6885 154.406 81.6841 160.938 69.5358 167.19C51.9108 176.259 34.2511 185.263 16.5436 194.171C11.5691 196.673 6.37539 198.74 0.9148 201.012C0.485951 197.303 0.424532 193.588 0.832235 189.269C1.8766 184.112 2.45184 179.558 3.02709 175.003C14.7585 168.971 26.467 162.894 38.2279 156.92C49.3418 151.275 60.5069 145.731 71.6566 140.156C87.8327 132.069 104.061 124.084 120.167 115.859C124.979 113.401 129.029 109.213 135.607 110.461C136.08 115.998 135.853 121.084 136.078 126.149C136.173 128.283 137.222 130.375 137.838 132.486Z" fill="#68C63B"/>
<path d="M261.591 216.331C258.959 214.614 260.274 213.502 262.16 212.413C272.753 206.296 283.115 199.737 293.965 194.119C320.022 180.626 346.299 167.557 372.506 154.356C376.491 152.349 380.464 150.209 384.663 148.776C387.273 147.885 390.298 148.208 393.527 147.995C395.797 157.076 397.678 166.15 399.436 175.615C397.337 174.07 395.356 173.664 392.697 175.075C377.634 183.07 362.544 191.017 347.353 198.763C336.304 204.396 325.057 209.639 313.968 215.196C312.301 216.031 311.068 217.702 309.54 218.861C308.455 219.684 307.211 220.297 305.536 220.571C305.081 218.83 305.028 217.509 305.193 216.216C305.723 212.079 304.52 210.022 299.823 210.71C296.287 211.227 292.642 211.005 288.875 210.851C287.801 210.933 286.898 211.277 285.577 211.729C277.303 213.334 269.447 214.832 261.591 216.331Z" fill="#48BC44"/>
<path d="M318.104 38.7897C324.622 44.0698 331.141 49.3498 337.814 55.2367C337.983 56.2261 337.999 56.6087 337.598 56.9941C332.417 58.1846 327.367 58.73 322.947 60.6923C313.416 64.923 304.181 69.8264 294.876 74.5559C281.481 81.3645 268.067 88.1437 254.838 95.2638C253.036 96.2339 252.253 99.0994 250.625 101.208C245.64 102.509 241.054 103.805 236.41 104.835C231.937 105.828 229.392 108.16 229.417 113.002C225.002 114.001 220.993 115.001 216.884 115.54C216.863 105.721 216.942 96.3613 217.378 86.9648C229.383 81.0075 241.016 75.0567 252.684 69.1753C265.833 62.5475 278.906 55.7536 292.22 49.4728C300.652 45.4954 309.463 42.3231 318.104 38.7897Z" fill="#63C53E"/>
<path d="M2.98761 223.004C17.2249 215.047 31.3165 206.815 45.736 199.203C64.3383 189.384 83.1882 180.032 101.966 170.549C106.111 168.456 110.262 166.154 114.68 164.912C117.161 164.214 120.196 165.488 123.433 166.398C123.79 172.281 123.697 177.64 123.281 183.098C122.638 184.465 122.319 185.732 121.999 186.999C112.65 191.477 103.281 195.917 93.955 200.443C83.25 205.638 72.5379 210.822 61.9087 216.17C45.3681 224.491 28.8584 232.877 12.4352 241.427C10.1671 242.608 8.46883 244.883 6.22747 246.837C4.71555 240.9 3.48293 234.777 2.51666 227.971C2.85122 225.859 2.91942 224.431 2.98761 223.004Z" fill="#5EC33E"/>
<path d="M250.999 101.087C252.253 99.0994 253.036 96.2339 254.838 95.2638C268.067 88.1437 281.481 81.3645 294.876 74.5559C304.181 69.8264 313.416 64.923 322.947 60.6923C327.367 58.73 332.417 58.1846 337.893 57.1407C340.685 58.8674 342.764 60.4503 344.843 62.0333C349.595 67.422 354.347 72.8107 359.182 78.5375C341.916 84.5911 326.536 94.3248 310.465 102.667C299.628 108.292 288.522 113.397 277.542 118.746C273.993 120.475 270.462 122.241 266.436 123.555C265.971 120.072 265.994 117.024 266.302 113.704C266.398 110.63 266.21 107.826 265.934 104.641C266.259 100.523 263.886 99.9687 260.845 99.779C260.128 99.722 259.558 99.8947 258.594 100.167C255.799 100.541 253.399 100.814 250.999 101.087Z" fill="#5EC33E"/>
<path d="M317.935 38.5026C309.463 42.3231 300.652 45.4954 292.22 49.4728C278.906 55.7536 265.833 62.5475 252.684 69.1753C241.016 75.0567 229.382 81.0075 217.288 86.503C216.955 79.053 217.069 72.0278 217.54 64.9963C222.602 62.3252 227.222 59.495 232.029 57.0302C241.688 52.0772 251.45 47.3229 261.17 42.4879C271.631 37.284 282.11 32.1156 292.518 26.8077C293.275 26.4218 293.517 25.0268 293.998 24.101C301.921 28.8059 309.844 33.5107 317.935 38.5026Z" fill="#68C63B"/>
<path d="M293.746 23.8547C293.517 25.0268 293.275 26.4218 292.518 26.8077C282.11 32.1156 271.631 37.284 261.17 42.4879C251.45 47.323 241.688 52.0772 232.029 57.0302C227.222 59.495 222.602 62.3252 217.453 64.5859C217.337 60.5546 215.342 59.8079 212.173 59.9021C207.121 60.0524 202.059 59.8804 197.002 59.8447C196.081 58.565 195.161 57.2852 193.729 55.2957C199.043 52.5942 204.138 49.9961 209.24 47.4117C218.528 42.7067 227.828 38.0254 237.108 33.3052C247.284 28.1297 257.36 22.747 267.668 17.8519C270.203 16.6481 273.471 16.988 276.686 16.3386C278.482 16.6197 279.996 17.1805 281.846 18.3338C283.016 19.2074 283.848 19.4884 284.68 19.7693C287.618 21.049 290.556 22.3287 293.746 23.8547Z" fill="#6DC73B"/>
<path d="M127.795 387.497C133.485 389.035 139.397 390.846 145.658 392.752C149.257 393.805 152.506 394.763 155.883 396.018C146.679 393.467 137.347 390.618 127.795 387.497Z" fill="#5AC241"/>
<path d="M105.837 377.47C112.039 380.061 118.424 382.938 124.911 386.107C118.682 383.519 112.351 380.637 105.837 377.47Z" fill="#5AC241"/>
<path d="M401.219 213.659C400.661 213.902 400.399 213.717 400.093 213.222C400.12 206.867 400.257 200.73 400.691 194.3C401.141 200.445 401.295 206.884 401.219 213.659Z" fill="#48BC44"/>
<path d="M2.69757 222.711C2.91938 224.431 2.85119 225.859 2.57087 227.564C1.70372 222.185 1.04868 216.529 0.550781 210.438C1.1383 212.393 1.63351 214.774 1.97731 217.177C2.22516 218.91 2.27141 220.671 2.69757 222.711Z" fill="#7ACB3A"/>
<path d="M3.01868 174.699C2.45184 179.558 1.87659 184.112 0.981262 188.832C1.06057 183.563 1.45997 178.128 2.125 172.42C2.59718 172.896 2.80373 173.645 3.01868 174.699Z" fill="#7ACB3A"/>
<path d="M390.312 135.636C387.844 130.495 385.462 125.007 383.127 119.14C385.582 124.269 387.99 129.78 390.312 135.636Z" fill="#7ACB3A"/>
<path d="M279.334 385.257C283.804 382.83 288.606 380.466 293.779 378.121C289.322 380.533 284.494 382.927 279.334 385.257Z" fill="#5AC241"/>
<path d="M245.727 5.73264C241.745 5.31205 237.476 4.6564 233.105 3.65503C237.148 4.03873 241.294 4.76816 245.727 5.73264Z" fill="#7ACB3A"/>
<path d="M344.761 61.7181C342.764 60.4503 340.685 58.8674 338.31 57.1379C337.999 56.6087 337.983 56.2261 337.951 55.5573C340.182 57.3151 342.431 59.359 344.761 61.7181Z" fill="#7ACB3A"/>
<path d="M4.52526 160.653C4.34654 163.485 3.87753 166.556 3.12561 169.807C3.30679 166.955 3.77088 163.924 4.52526 160.653Z" fill="#7ACB3A"/>
<path d="M189.463 400.983C191.64 400.799 194.166 400.761 196.845 401.025C194.603 401.261 192.207 401.195 189.463 400.983Z" fill="#5AC241"/>
<path d="M90.8713 368.442C93.1021 369.449 95.4798 370.754 97.9217 372.377C95.6633 371.377 93.3408 370.058 90.8713 368.442Z" fill="#5AC241"/>
<path d="M257.339 393.248C259.549 392.144 262.093 391.147 265.023 390.208C262.83 391.296 260.251 392.326 257.339 393.248Z" fill="#5AC241"/>
<path d="M205.377 401.554C207.123 401.051 209.245 400.7 211.625 400.596C209.839 401.131 207.796 401.418 205.377 401.554Z" fill="#5AC241"/>
<path d="M400.483 185.613C400.027 183.856 399.7 181.708 399.632 179.302C400.131 181.103 400.371 183.162 400.483 185.613Z" fill="#48BC44"/>
<path d="M256.081 8.61179C256.123 8.90431 255.899 8.93877 255.338 9.02055C252.742 8.4155 250.483 7.76312 248.112 6.79434C250.605 7.1032 253.211 7.72846 256.081 8.61179Z" fill="#7ACB3A"/>
<path d="M377.54 106.652C376.381 105.202 375.228 103.425 374.073 101.3C375.229 102.743 376.389 104.534 377.54 106.652Z" fill="#7ACB3A"/>
<path d="M400.193 224.693C399.915 223.408 399.848 221.827 400.078 220.12C400.384 221.461 400.394 222.929 400.193 224.693Z" fill="#48BC44"/>
<path d="M49.4161 332.298C50.5725 333.124 51.7559 334.257 52.9519 335.726C51.7907 334.909 50.6169 333.757 49.4161 332.298Z" fill="#5AC241"/>
<path d="M76.9354 358.387C77.8668 358.743 78.9012 359.396 80.0044 360.372C79.0616 360.025 78.05 359.354 76.9354 358.387Z" fill="#5AC241"/>
<path d="M71.9261 354.383C72.8499 354.72 73.8759 355.351 74.9547 356.298C74.0145 355.969 73.0214 355.323 71.9261 354.383Z" fill="#5AC241"/>
<path d="M398.722 232.568C398.53 231.617 398.621 230.463 399.031 229.153C399.235 230.119 399.12 231.242 398.722 232.568Z" fill="#48BC44"/>
<path d="M222.277 400.245C222.853 399.883 223.71 399.643 224.724 399.61C224.108 400 223.333 400.184 222.277 400.245Z" fill="#5AC241"/>
<path d="M177.366 399.991C177.996 399.783 178.887 399.735 179.892 399.918C179.213 400.15 178.42 400.15 177.366 399.991Z" fill="#5AC241"/>
<path d="M102.105 375.325C102.935 375.434 103.905 375.821 104.926 376.543C104.067 376.453 103.156 376.027 102.105 375.325Z" fill="#5AC241"/>
<path d="M249.255 395.433C249.535 395.017 250.068 394.706 250.734 394.579C250.413 395.022 249.961 395.28 249.255 395.433Z" fill="#5AC241"/>
<path d="M18.7653 117.171C18.8914 117.647 18.7736 118.291 18.3703 118.967C18.2303 118.446 18.3759 117.893 18.7653 117.171Z" fill="#7ACB3A"/>
<path d="M284.518 19.4792C283.848 19.4884 283.016 19.2074 282.095 18.5831C282.789 18.5561 283.572 18.8726 284.518 19.4792Z" fill="#71C93A"/>
<path d="M24.4631 106.484C24.4152 107.167 24.0693 108.013 23.3506 108.926C23.3736 108.211 23.7694 107.429 24.4631 106.484Z" fill="#7ACB3A"/>
<path d="M25.6227 298.266C26.1033 298.527 26.5277 299.059 26.946 299.874C26.4821 299.617 26.0243 299.077 25.6227 298.266Z" fill="#5AC241"/>
<path d="M230.235 399.284C230.548 398.948 231.099 398.709 231.77 398.655C231.417 399.021 230.945 399.201 230.235 399.284Z" fill="#5AC241"/>
<path d="M163.303 397.947C163.704 397.769 164.293 397.789 164.952 398.021C164.511 398.203 164.001 398.174 163.303 397.947Z" fill="#5AC241"/>
<path d="M241.249 397.418C241.521 397.02 242.048 396.691 242.716 396.539C242.406 396.973 241.955 397.231 241.249 397.418Z" fill="#5AC241"/>
<path d="M159.28 397.022C159.707 396.877 160.313 396.942 160.963 397.248C160.491 397.403 159.975 397.317 159.28 397.022Z" fill="#5AC241"/>
<path d="M245.251 396.44C245.532 396.027 246.068 395.713 246.736 395.583C246.415 396.025 245.96 396.282 245.251 396.44Z" fill="#5AC241"/>
<path d="M44.1885 326.256C44.7452 326.459 45.3359 326.961 45.9394 327.783C45.3756 327.587 44.799 327.071 44.1885 326.256Z" fill="#5AC241"/>
<path d="M253.25 394.378C253.525 393.962 254.051 393.656 254.712 393.524C254.398 393.961 253.95 394.225 253.25 394.378Z" fill="#5AC241"/>
<path d="M364.613 85.7106C364.105 85.4881 363.589 84.9868 363.079 84.1847C363.592 84.3998 364.099 84.9159 364.613 85.7106Z" fill="#7ACB3A"/>
<path d="M366.69 88.6881C366.159 88.4466 365.631 87.9125 365.128 87.0606C365.666 87.2937 366.18 87.8446 366.69 88.6881Z" fill="#7ACB3A"/>
<path d="M368.701 91.6883C368.178 91.4448 367.642 90.9123 367.131 90.0603C367.667 90.2936 368.178 90.8465 368.701 91.6883Z" fill="#7ACB3A"/>
<path d="M33.3882 311.281C33.897 311.508 34.4096 312.02 34.9119 312.837C34.3984 312.616 33.8951 312.09 33.3882 311.281Z" fill="#5AC241"/>
<path d="M41.2921 322.284C41.8177 322.501 42.3753 323.005 42.9371 323.823C42.4023 323.616 41.8632 323.093 41.2921 322.284Z" fill="#5AC241"/>
<path d="M196.556 59.9562C202.059 59.8804 207.121 60.0524 212.173 59.9021C215.342 59.8079 217.337 60.5546 217.096 64.592C217.069 72.0278 216.955 79.053 216.932 86.5401C216.942 96.3614 216.863 105.721 216.789 116.001C216.853 127.948 216.912 138.975 216.971 150.001C216.89 163.695 216.809 177.389 216.831 191.542C216.888 205.696 216.841 219.389 216.8 234.002C216.859 244.948 216.913 254.975 216.968 265.001C216.933 277.361 216.899 289.72 216.958 302.54C216.961 309.03 216.87 315.058 216.89 321.545C216.983 327.124 216.808 332.252 217.003 337.365C217.135 340.827 215.844 342.093 212.394 342.007C205.612 341.836 198.823 341.962 192.037 341.971C185.126 341.98 185.126 341.983 184.976 334.435C184.932 324.365 185.587 314.676 184.775 305.11C184.266 299.112 181.552 293.302 179.589 287.148C173.334 272.881 162.964 262.955 149.582 255.431C136.081 247.022 121.336 244.234 106.173 242.843C103.116 242.562 100.08 242.045 96.7613 241.324C96.5787 232.716 96.803 224.419 96.7027 216.126C96.6541 212.11 97.9386 210.279 102.187 210.854C113.175 212.339 124.182 213.68 135.895 215.246C153.909 221.044 170.619 227.848 184.548 241.262C187.805 222.11 174.412 206.624 161.506 199.712C152.184 192.362 141.205 189.578 129.723 188.182C127.927 187.964 126.13 187.749 124.045 186.871C123.705 185.139 123.654 184.069 123.603 182.999C123.697 177.64 123.79 172.281 123.787 166.462C124.559 155.06 125.016 154.664 136.353 156.424C152.322 158.903 167.213 164.304 180.832 173.087C181.893 173.77 183.035 174.326 184.589 175.192C186.095 166.603 184.406 159.282 179.496 152.8C169.26 139.289 155.433 132.851 138.23 132.49C137.222 130.375 136.173 128.283 136.078 126.149C135.853 121.084 136.08 115.998 136.026 110.461C136.842 99.3378 136.804 99.6514 147.945 101.003C159.538 102.408 170.189 106.224 180.339 111.772C181.576 112.448 182.919 112.931 185.014 113.859C185.014 97.3513 185.014 81.639 184.934 65.464C184.724 61.2968 186.255 59.5187 190.188 60.0433C192.128 60.3021 194.134 60.075 196.556 59.9562Z" fill="#FCFEFC"/>
<path d="M261.295 216.579C269.447 214.832 277.303 213.334 285.894 211.801C287.435 211.548 288.241 211.33 289.046 211.112C292.642 211.005 296.287 211.227 299.823 210.71C304.52 210.022 305.723 212.079 305.193 216.216C305.028 217.509 305.081 218.83 305.17 220.572C305.305 225.988 305.294 230.971 305.307 235.953C305.324 242.336 304.952 242.686 298.548 242.865C277.894 243.439 258.899 248.967 242.499 261.969C239.516 264.334 236.941 267.206 234.055 269.703C232.844 270.75 231.315 271.429 229.456 272.566C229.673 267.996 229.841 264.443 230.015 259.986C229.984 250.387 229.946 241.694 229.908 233C231.44 231.358 232.668 229.054 234.556 228.186C243.27 224.181 252.168 220.576 261.295 216.579Z" fill="#FCFEFC"/>
<path d="M229.521 232.948C229.946 241.694 229.984 250.387 229.935 259.543C225.804 261.667 221.761 263.33 217.342 264.997C216.913 254.974 216.859 244.948 216.904 234.461C221.046 233.633 225.09 233.265 229.521 232.948Z" fill="#48BC44"/>
<path d="M229.875 189.381C229.891 183.144 230.105 177.322 229.976 171.508C229.906 168.362 231.199 166.565 233.975 165.388C246.929 159.898 260.262 156.129 274.454 155.814C279.901 155.693 277.608 159.607 278.176 162.563C278.244 169.653 278.091 176.304 278.249 182.948C278.324 186.15 277.555 187.947 273.974 188.141C258.857 188.957 245.676 194.746 233.892 204.045C233.076 204.688 231.947 204.934 229.931 205.818C229.931 199.937 229.931 194.868 229.875 189.381Z" fill="#FCFEFC"/>
<path d="M266.017 113.976C265.994 117.024 265.971 120.072 266.071 123.562C265.903 126.451 265.611 128.899 264.775 131.759C262.497 132.455 260.764 132.739 259.03 133.023C258.254 133.051 257.479 133.079 255.98 133.22C253.18 133.896 251.103 134.458 249.026 135.02C248.069 135.287 247.113 135.554 245.577 136.076C242.653 137.527 240.309 138.723 237.966 139.919C237.407 140.068 236.847 140.217 235.757 140.664C233.833 141.621 232.44 142.281 229.823 143.521C229.823 132.625 229.823 122.814 229.823 113.002C229.392 108.16 231.936 105.828 236.41 104.835C241.054 103.805 245.64 102.509 250.625 101.208C253.399 100.814 255.799 100.541 258.771 100.305C259.892 100.231 260.442 100.12 260.992 100.009C263.886 99.9686 266.259 100.523 265.747 104.969C265.77 108.444 265.894 111.21 266.017 113.976Z" fill="#FCFEFC"/>
<path d="M229.417 113.002C229.823 122.814 229.823 132.625 229.823 143.521C232.44 142.281 233.833 141.621 235.585 140.905C234.946 142.195 234.224 144.227 232.897 144.765C227.952 146.772 222.808 148.289 217.355 149.996C216.912 138.975 216.853 127.948 216.889 116.461C220.993 115.001 225.002 114.001 229.417 113.002Z" fill="#5EC33E"/>
<path d="M238.207 140.21C240.309 138.723 242.653 137.527 245.367 136.299C245.472 141.403 242.133 141.249 238.207 140.21Z" fill="#5EC33E"/>
<path d="M249.242 135.271C251.103 134.458 253.18 133.896 255.629 133.398C253.821 134.148 251.64 134.835 249.242 135.271Z" fill="#71C93A"/>
<path d="M259.276 133.297C260.764 132.739 262.497 132.455 264.624 132.137C263.185 132.592 261.354 133.082 259.276 133.297Z" fill="#71C93A"/>
<path d="M161.144 199.879C174.412 206.624 187.805 222.11 184.548 241.262C170.619 227.848 153.909 221.044 136.304 215.202C139.787 212.113 143.366 208.888 147.419 206.453C151.634 203.92 156.308 202.149 161.144 199.879Z" fill="#56C041"/>
<path d="M123.281 183.098C123.654 184.069 123.705 185.139 123.703 186.611C123.283 187.01 122.916 187.006 122.275 187.001C122.319 185.732 122.638 184.465 123.281 183.098Z" fill="#63C53E"/>
<path d="M288.875 210.851C288.241 211.33 287.435 211.548 286.313 211.694C286.898 211.277 287.801 210.933 288.875 210.851Z" fill="#4DBE44"/>
<path d="M266.302 113.704C265.894 111.21 265.77 108.444 265.834 105.35C266.21 107.826 266.398 110.63 266.302 113.704Z" fill="#71C93A"/>
<path d="M260.845 99.779C260.442 100.12 259.892 100.231 259.165 100.205C259.558 99.8947 260.128 99.722 260.845 99.779Z" fill="#71C93A"/>
</svg>
